<svg width="1837" height="705" viewBox="0 0 1837 705" fill="none" xmlns="http://www.w3.org/2000/svg">
<g filter="url(#filter0_f_212_16580)">
<path opacity="0.15" d="M1582.19 307.88C1615.7 344.97 1642.88 409.451 1592.8 454.973C1587.63 459.666 1539.18 502.248 1466.3 496.96C1377.54 490.52 1359.34 420.812 1261.38 402.716C1155.3 383.119 1093.04 449.425 1041.23 429.056C979.971 404.97 972.451 275.071 1083.33 219.396C1216.91 152.326 1492.08 208.151 1582.19 307.88Z" fill="#EBC136"/>
<path opacity="0.15" d="M747.245 499.639C778.307 480.569 812.155 442.148 791.134 403.285C788.966 399.278 768.262 362.654 719.679 353.834C660.505 343.09 631.162 386.52 563.092 381.996C489.375 377.096 465.688 322.301 426.971 327.114C381.189 332.806 343.627 418.21 401.513 474.149C471.248 541.538 663.723 550.917 747.245 499.639Z" fill="#EBC136"/>
<path opacity="0.15" d="M929.575 391.89C914.187 370.799 898.464 330.221 911.947 292.859C913.337 289.007 926.519 253.857 952.877 248.297C984.983 241.526 998.013 286.799 1034.48 286.823C1073.97 286.849 1089.82 233.774 1110.12 241.155C1134.13 249.883 1149.04 337.57 1114.94 389.508C1073.87 452.075 970.953 448.602 929.575 391.89Z" fill="#EBC136"/>
<path opacity="0.15" d="M917.467 344.802C934.285 334.124 952.622 312.633 941.277 290.936C940.107 288.699 928.931 268.254 902.654 263.363C870.649 257.407 854.745 281.693 817.923 279.218C778.047 276.538 765.27 245.943 744.322 248.661C719.55 251.876 699.171 299.62 730.448 330.828C768.128 368.423 872.247 373.514 917.467 344.802Z" fill="#EBC136"/>
<path opacity="0.15" d="M1641.62 318.365C1659.76 302.046 1679.7 269.494 1667.95 237.192C1666.74 233.861 1655.14 203.43 1627.17 196.595C1593.09 188.269 1575.7 224.964 1536.42 221.946C1493.89 218.678 1480.75 173.066 1458.34 177.534C1431.83 182.818 1409.28 254.751 1442.15 300.934C1481.76 356.569 1592.86 362.244 1641.62 318.365Z" fill="#8047F8"/>
<path opacity="0.15" d="M1653.61 447.852C1667.71 458.804 1683.15 480.725 1673.84 502.622C1672.88 504.88 1663.7 525.511 1641.82 530.261C1615.16 536.047 1601.73 511.312 1571.03 513.533C1537.79 515.938 1527.35 546.841 1509.86 543.922C1489.17 540.471 1471.84 491.932 1497.71 460.552C1528.88 422.749 1615.69 418.404 1653.61 447.852Z" fill="#8047F8"/>
<path opacity="0.15" d="M454.937 206.892C467.507 228.616 479.932 270.056 467.695 307.492C466.433 311.351 454.5 346.558 432.055 351.502C404.717 357.524 394.675 311.405 363.792 310.442C330.347 309.4 315.765 362.665 298.732 354.678C278.59 345.234 267.883 256.175 297.9 204.53C334.06 142.315 421.139 148.476 454.937 206.892Z" fill="#EBC136"/>
<path opacity="0.15" d="M1096.51 502.947C1070.62 483.727 1045.46 445.18 1071.93 406.528C1074.65 402.543 1100.43 366.123 1147.6 357.62C1205.05 347.262 1225.11 390.78 1289.84 386.683C1359.94 382.246 1391.66 327.712 1427.2 332.753C1469.23 338.713 1489.76 424.166 1425.71 479.631C1348.55 546.449 1166.11 554.627 1096.51 502.947Z" fill="#EBC136"/>
<path opacity="0.15" d="M1022.92 469.538C1044.56 450.513 1067.25 413.904 1049.97 380.187C1048.19 376.71 1031.25 344.989 995.43 339.962C951.805 333.84 932.654 374.687 882.868 374.695C828.953 374.704 808.92 326.808 780.979 333.46C747.939 341.327 724.942 420.444 769.931 467.321C824.129 523.792 964.728 520.695 1022.92 469.538Z" fill="#8047F8"/>
<path opacity="0.15" d="M1070.47 211.004C1111.02 221.666 1154.08 241.465 1123.34 258.257C1120.17 259.989 1089.99 275.762 1024.11 277.009C943.863 278.528 907.181 256.67 815.369 254.784C715.943 252.742 680.601 276.767 628.852 272.269C567.659 266.95 522.602 225.145 604 202.591C702.058 175.42 961.443 182.335 1070.47 211.004Z" fill="#8047F8"/>
<path opacity="0.15" d="M403.139 452.866C422.225 430.714 442.35 388.381 427.454 349.978C425.918 346.018 411.31 309.899 379.98 304.685C341.82 298.335 324.761 345.475 281.163 346.25C233.949 347.089 216.744 292.467 192.229 300.526C163.24 310.056 142.542 401.145 181.608 454.214C228.671 518.144 351.816 512.431 403.139 452.866Z" fill="#8047F8"/>
</g>
<defs>
<filter id="filter0_f_212_16580" x="0.116577" y="-90" width="1836.55" height="864" filterUnits="userSpaceOnUse" color-interpolation-filters="sRGB">
<feFlood flood-opacity="0" result="BackgroundImageFix"/>
<feBlend mode="normal" in="SourceGraphic" in2="BackgroundImageFix" result="shape"/>
<feGaussianBlur stdDeviation="80" result="effect1_foregroundBlur_212_16580"/>
</filter>
</defs>
</svg>
